<?xml version="1.0" encoding="utf-8"?>
<!DOCTYPE svg PUBLIC "-//W3C//DTD SVG 1.1//EN" "http://www.w3.org/Graphics/SVG/1.1/DTD/svg11.dtd">
<svg version="1.1"
	 xmlns="http://www.w3.org/2000/svg" xmlns:xlink="http://www.w3.org/1999/xlink"
	 x="0px" y="0px" width="342px" height="486px" viewBox="-4.926 -4.29 114 162" enable-background="new -4.926 -4.29 114 162">
<g style="fill: none; stroke: #000000">
	<line stroke-linecap="round" x1="34.926" y1="99.695" x2="34.926" y2="119.545" />
	<line stroke-linecap="round" x1="52.117" y1="89.781" x2="34.926" y2="99.695" />
	<line x1="31.269" y1="118.186" x2="18.359" y2="125.643" />
	<line x1="31.269" y1="101.055" x2="18.359" y2="93.597" />
	<line x1="55.121" y1="72.411" x2="55.121" y2="87.295" />
	<line x1="70.801" y1="41.006" x2="57.415" y2="33.275" />
	<line x1="69.315" y1="99.695" x2="81.181" y2="92.826" />
	<line x1="3.504" y1="117.066" x2="3.504" y2="102.174" />
	<line stroke-linecap="round" x1="69.315" y1="99.695" x2="52.117" y2="89.781" />
	<line x1="67.8" y1="39.273" x2="81.556" y2="31.329" />
	<line x1="70.801" y1="41.006" x2="82.72" y2="34.122" />
	<line x1="91.802" y1="92.818" x2="103.683" y2="99.68" />
	<line x1="48.262" y1="130.922" x2="43.328" y2="145.088" />
	<line x1="21.951" y1="141.678" x2="17.713" y2="129.488" />
	<polyline points="52.14,129.488 45.573,148.377 29.303,148.377 " />
	<polyline points="86.491,84.035 86.491,69.902 69.3,59.989 " />
	<polyline stroke-linecap="round" points="69.3,59.989 52.117,69.932 52.117,89.781 " />
	<polyline stroke-linecap="round" points="34.926,119.545 52.117,129.457 69.315,119.545 69.315,99.695 " />
	<polyline points="52.11,24.495 52.11,10.361 69.3,0.433 " />
	<polyline points="46.8,33.278 34.919,40.139 17.728,30.211 " />
	<polyline stroke-linecap="round" points="34.926,119.545 17.713,129.488 0.5,119.545 0.5,99.695 17.713,89.752 34.926,99.695 " />
</g>

<g style="fill: #000000; stroke: none">
	<polygon points="68.834,59.989 66.825,38.709 70.801,41.006 71.595,40.547 69.767,59.989 " />
	<polygon points="71.149,85.144 69.782,99.695 68.849,99.695 67.481,85.146 " />
	
	<text text-anchor="end" x="28.18" y="151.427" font-family="DejaVu Sans" font-size="11">HN</text>
	<text text-anchor="middle" x="86.491" y="93.401" font-family="DejaVu Sans" font-size="11">N</text>
	<text text-anchor="middle" x="69.315" y="83.396" font-family="DejaVu Sans" font-size="11">H</text>
	<text text-anchor="middle" x="87.489" y="33.861" font-family="DejaVu Sans" font-size="11">O</text>
	<text text-anchor="middle" x="52.11" y="33.861" font-family="DejaVu Sans" font-size="11">N</text>
</g>
</svg>
